<?xml version="1.0" standalone="no"?>
<!DOCTYPE svg PUBLIC "-//W3C//DTD SVG 20010904//EN"
 "http://www.w3.org/TR/2001/REC-SVG-20010904/DTD/svg10.dtd">
<svg version="1.0" xmlns="http://www.w3.org/2000/svg"
 width="16.000000pt" height="16.000000pt" viewBox="0 0 16.000000 16.000000"
 preserveAspectRatio="xMidYMid meet">
<metadata>
Created by potrace 1.11, written by Peter Selinger 2001-2013
</metadata>
<g transform="translate(0.000000,16.000000) scale(0.002286,-0.002286)"
fill="#000000" stroke="none">
<path d="M3298 6995 c-2 -2 -41 -6 -88 -9 -47 -3 -95 -8 -107 -10 -12 -3 -46
-7 -76 -10 -118 -13 -340 -62 -500 -111 -340 -103 -661 -258 -957 -464 -96
-66 -259 -194 -315 -246 -246 -229 -392 -393 -549 -618 -162 -233 -314 -522
-409 -777 -90 -243 -164 -532 -192 -760 -4 -30 -9 -62 -10 -70 -26 -144 -26
-626 0 -835 15 -123 22 -170 29 -193 3 -9 7 -34 10 -54 3 -21 11 -59 17 -85 6
-27 12 -57 15 -68 2 -11 7 -33 11 -50 4 -16 7 -32 8 -35 8 -37 81 -271 95
-305 4 -11 23 -58 41 -105 35 -93 156 -346 214 -450 59 -105 195 -307 283
-419 418 -535 992 -942 1627 -1151 39 -13 71 -23 72 -22 2 1 22 -6 45 -14 63
-22 206 -55 338 -79 19 -3 42 -8 50 -10 8 -2 40 -7 70 -10 30 -4 66 -8 80 -10
180 -26 646 -26 800 -1 14 3 48 7 75 11 28 3 57 8 65 10 8 2 31 6 50 9 352 53
795 218 1142 427 175 105 381 254 498 361 287 263 469 476 654 768 101 158
232 415 297 580 34 87 119 341 119 356 0 7 6 33 14 56 22 71 68 302 82 408 4
30 8 66 10 80 25 179 24 699 -1 830 -2 11 -6 45 -10 77 -3 32 -10 74 -15 93
-5 19 -11 51 -14 70 -8 52 -40 205 -50 235 -1 6 -8 30 -15 55 -56 208 -139
421 -248 640 -82 163 -107 208 -219 375 -199 300 -450 575 -731 799 -220 175
-544 368 -785 467 -29 12 -66 27 -83 34 -148 63 -478 156 -642 181 -21 3 -46
7 -56 10 -19 6 -47 10 -137 20 -30 3 -73 8 -95 10 -46 5 -502 13 -507 9z"/>
</g>
</svg>
